:FULLY-SPECIFIED
:FORCE-ALL-JOINTS-BE-3DOF
:DEGREES
1427
root -2.08881 13.7328 12.6636 366.481 27.2048 366.435
lfemur 25.4888 -0.146919 -10.6669
ltibia 16.8917 0 0
lfoot -15.9148 34.3584 0
ltoes -25.2797 0 0
rfemur -64.8288 -20.8583 11.7723
rtibia 72.982 0 0
rfoot -8.54626 9.95948 0
rtoes 3.44209 0 0
lowerback 10.4557 2.12986 -10.1229
upperback -3.16496 1.34095 -1.002
thorax -9.57156 1.21197 4.36287
lowerneck 0.204128 -11.7664 -10.7085
upperneck 5.7931 -16.2085 10.0426
head 3.38467 -8.06047 4.0265
lclavicle 1.21132e-14 -3.39281e-15 0
lhumerus -73.5425 -17.7644 103.974
lradius 101.179 0 0
lwrist 57.94 0 0
lhand -9.38991 42.9642 0
lfingers 7.12502 0 0
lthumb 16.571 -287.724 0
rclavicle 1.21132e-14 -3.39281e-15 0
rhumerus 63.2431 -14.029 -27.8037
rradius 82.0399 0 0
rwrist 27.511 0 0
rhand -43.8062 -31.3673 0
rfingers 7.12502 0 0
rthumb -16.6346 -60.6744 0
1428
root -2.09225 13.7302 12.6655 366.498 27.2088 366.454
lfemur 25.4587 -0.148513 -10.6418
ltibia 16.9389 0 0
lfoot -15.8872 34.3724 0
ltoes -25.1166 0 0
rfemur -64.8955 -20.9163 11.8124
rtibia 73.058 0 0
rfoot -8.58068 10.0067 0
rtoes 3.55429 0 0
lowerback 10.4405 2.11721 -10.1475
upperback -3.18191 1.32184 -0.997207
thorax -9.57967 1.20539 4.38555
lowerneck 0.187392 -11.7566 -10.6887
upperneck 5.80865 -16.1926 10.0091
head 3.38602 -8.05242 4.01375
lclavicle 1.20372e-14 -2.33454e-15 0
lhumerus -73.5719 -17.8031 104.02
lradius 101.154 0 0
lwrist 57.9871 0 0
lhand -9.38587 42.8534 0
lfingers 7.12502 0 0
lthumb 16.5749 -287.835 0
rclavicle 1.20372e-14 -2.33454e-15 0
rhumerus 63.2104 -14.0153 -27.7934
rradius 82.0623 0 0
rwrist 27.4373 0 0
rhand -43.7896 -31.3518 0
rfingers 7.12502 0 0
rthumb -16.6187 -60.6602 0
1429
root -2.09568 13.7275 12.6674 366.52 27.2096 366.473
lfemur 25.4363 -0.148462 -10.614
ltibia 16.9716 0 0
lfoot -15.8527 34.3876 0
ltoes -24.9477 0 0
rfemur -64.9757 -20.9815 11.8602
rtibia 73.1482 0 0
rfoot -8.62323 10.0606 0
rtoes 3.68509 0 0
lowerback 10.4232 2.10375 -10.1735
upperback -3.20023 1.30167 -0.992136
thorax -9.58799 1.19845 4.40948
lowerneck 0.168432 -11.7458 -10.6665
upperneck 5.82512 -16.1751 9.97279
head 3.38741 -8.04353 3.99981
lclavicle 1.19126e-14 -1.1871e-15 0
lhumerus -73.6035 -17.8462 104.071
lradius 101.126 0 0
lwrist 58.0378 0 0
lhand -9.37976 42.7342 0
lfingers 7.12502 0 0
lthumb 16.5808 -287.955 0
rclavicle 1.19126e-14 -1.1871e-15 0
rhumerus 63.1764 -14.0011 -27.7846
rradius 82.0866 0 0
rwrist 27.3555 0 0
rhand -43.7718 -31.3338 0
rfingers 7.12502 0 0
rthumb -16.6015 -60.6437 0
1430
root -2.09912 13.7249 12.6694 366.547 27.2068 366.495
lfemur 25.4222 -0.146627 -10.5834
ltibia 16.9885 0 0
lfoot -15.8107 34.4041 0
ltoes -24.7729 0 0
rfemur -65.0702 -21.0544 11.9162
rtibia 73.2536 0 0
rfoot -8.67445 10.1217 0
rtoes 3.83565 0 0
lowerback 10.4037 2.08945 -10.2008
upperback -3.21996 1.28039 -0.986785
thorax -9.59651 1.19113 4.43468
lowerneck 0.147119 -11.7341 -10.6417
upperneck 5.84251 -16.156 9.93356
head 3.38884 -8.03375 3.98461
lclavicle 1.17357e-14 5.33706e-17 0
lhumerus -73.6374 -17.8941 104.125
lradius 101.095 0 0
lwrist 58.0923 0 0
lhand -9.37145 42.6064 0
lfingers 7.12502 0 0
lthumb 16.5888 -288.083 0
rclavicle 1.17357e-14 5.33706e-17 0
rhumerus 63.1411 -13.9863 -27.7775
rradius 82.1132 0 0
rwrist 27.2651 0 0
rhand -43.7526 -31.3132 0
rfingers 7.12502 0 0
rthumb -16.583 -60.6247 0
1431
root -2.10255 13.7223 12.6713 366.579 27.2002 366.519
lfemur 25.417 -0.14287 -10.5498
ltibia 16.9883 0 0
lfoot -15.7609 34.4219 0
ltoes -24.5924 0 0
rfemur -65.1798 -21.1352 11.981
rtibia 73.3751 0 0
rfoot -8.7349 10.1903 0
rtoes 4.00712 0 0
lowerback 10.382 2.07429 -10.2295
upperback -3.24117 1.25799 -0.981145
thorax -9.60524 1.18342 4.4612
lowerneck 0.123328 -11.7213 -10.6142
upperneck 5.86087 -16.1351 9.89128
head 3.3903 -8.02303 3.9681
lclavicle 1.1503e-14 1.39073e-15 0
lhumerus -73.6736 -17.9469 104.184
lradius 101.061 0 0
lwrist 58.1508 0 0
lhand -9.36076 42.4694 0
lfingers 7.12502 0 0
lthumb 16.5991 -288.221 0
rclavicle 1.1503e-14 1.39073e-15 0
rhumerus 63.1045 -13.971 -27.7722
rradius 82.142 0 0
rwrist 27.1657 0 0
rhand -43.7321 -31.2898 0
rfingers 7.12502 0 0
rthumb -16.5633 -60.6029 0
1432
root -2.10598 13.7196 12.6732 366.617 27.1895 366.546
lfemur 25.4216 -0.137055 -10.5131
ltibia 16.9696 0 0
lfoot -15.7027 34.4412 0
ltoes -24.4061 0 0
rfemur -65.3055 -21.2245 12.055
rtibia 73.5135 0 0
rfoot -8.80513 10.2669 0
rtoes 4.20064 0 0
lowerback 10.3579 2.05824 -10.2596
upperback -3.26391 1.23445 -0.97521
thorax -9.61416 1.17532 4.48906
lowerneck 0.0969309 -11.7074 -10.5839
upperneck 5.8802 -16.1123 9.84583
head 3.39179 -8.01134 3.95023
lclavicle 1.12106e-14 2.82883e-15 0
lhumerus -73.7123 -18.005 104.247
lradius 101.023 0 0
lwrist 58.2132 0 0
lhand -9.34756 42.3232 0
lfingers 7.12502 0 0
lthumb 16.6118 -288.368 0
rclavicle 1.12106e-14 2.82883e-15 0
rhumerus 63.0665 -13.9551 -27.7689
rradius 82.1732 0 0
rwrist 27.0569 0 0
rhand -43.7102 -31.2635 0
rfingers 7.12502 0 0
rthumb -16.5422 -60.5784 0
1433
root -2.10942 13.717 12.6751 366.66 27.1745 366.574
lfemur 25.4366 -0.129043 -10.4731
ltibia 16.9312 0 0
lfoot -15.6357 34.4619 0
ltoes -24.2142 0 0
rfemur -65.448 -21.3226 12.1388
rtibia 73.6697 0 0
rfoot -8.88567 10.3518 0
rtoes 4.41735 0 0
lowerback 10.3313 2.04128 -10.2912
upperback -3.28823 1.20973 -0.968972
thorax -9.62326 1.16682 4.51828
lowerneck 0.067802 -11.6925 -10.5507
upperneck 5.90054 -16.0877 9.79708
head 3.39331 -7.99864 3.93093
lclavicle 1.08549e-14 4.37154e-15 0
lhumerus -73.7536 -18.0686 104.315
lradius 100.982 0 0
lwrist 58.2799 0 0
lhand -9.33168 42.1672 0
lfingers 7.12502 0 0
lthumb 16.6271 -288.525 0
rclavicle 1.08549e-14 4.37154e-15 0
rhumerus 63.0272 -13.9387 -27.7677
rradius 82.2068 0 0
rwrist 26.9382 0 0
rhand -43.6869 -31.2341 0
rfingers 7.12502 0 0
rthumb -16.5197 -60.5508 0
